  0
SECTION
  2
HEADER
  9
$ACADVER
  1
AC1024
  9
$ACADMAINTVER
 70
     6
  9
$DWGCODEPAGE
  3
UNDEFINED
  9
$INSBASE
 10
0.0
 20
0.0
 30
0.0
  9
$EXTMIN
 10
1.000000000000000E+20
 20
1.000000000000000E+20
 30
1.000000000000000E+20
  9
$EXTMAX
 10
-1.000000000000000E+20
 20
-1.000000000000000E+20
 30
-1.000000000000000E+20
  9
$LIMMIN
 10
0.0
 20
0.0
  9
$LIMMAX
 10
12.0
 20
9.0
  9
$ORTHOMODE
 70
     0
  9
$REGENMODE
 70
     1
  9
$FILLMODE
 70
     1
  9
$QTEXTMODE
 70
     0
  9
$MIRRTEXT
 70
     1
  9
$LTSCALE
 40
1.0
  9
$ATTMODE
 70
     1
  9
$TEXTSIZE
 40
0.2
  9
$TRACEWID
 40
0.05
  9
$TEXTSTYLE
  7
Standard
  9
$CLAYER
  8
0
  9
$CELTYPE
  6
ByLayer
  9
$CECOLOR
 62
   256
  9
$CELTSCALE
 40
1.0
  9
$DISPSILH
 70
     0
  9
$DIMSCALE
 40
1.0
  9
$DIMASZ
 40
0.18
  9
$DIMEXO
 40
0.0625
  9
$DIMDLI
 40
0.38
  9
$DIMRND
 40
0.0
  9
$DIMDLE
 40
0.0
  9
$DIMEXE
 40
0.18
  9
$DIMTP
 40
0.0
  9
$DIMTM
 40
0.0
  9
$DIMTXT
 40
0.18
  9
$DIMCEN
 40
0.09
  9
$DIMTSZ
 40
0.0
  9
$DIMTOL
 70
     0
  9
$DIMLIM
 70
     0
  9
$DIMTIH
 70
     1
  9
$DIMTOH
 70
     1
  9
$DIMSE1
 70
     0
  9
$DIMSE2
 70
     0
  9
$DIMTAD
 70
     0
  9
$DIMZIN
 70
     0
  9
$DIMBLK
  1

  9
$DIMASO
 70
     1
  9
$DIMSHO
 70
     1
  9
$DIMPOST
  1

  9
$DIMAPOST
  1

  9
$DIMALT
 70
     0
  9
$DIMALTD
 70
     2
  9
$DIMALTF
 40
25.4
  9
$DIMLFAC
 40
1.0
  9
$DIMTOFL
 70
     0
  9
$DIMTVP
 40
0.0
  9
$DIMTIX
 70
     0
  9
$DIMSOXD
 70
     0
  9
$DIMSAH
 70
     0
  9
$DIMBLK1
  1

  9
$DIMBLK2
  1

  9
$DIMSTYLE
  2
Standard
  9
$DIMCLRD
 70
     0
  9
$DIMCLRE
 70
     0
  9
$DIMCLRT
 70
     0
  9
$DIMTFAC
 40
1.0
  9
$DIMGAP
 40
0.09
  9
$DIMJUST
 70
     0
  9
$DIMSD1
 70
     0
  9
$DIMSD2
 70
     0
  9
$DIMTOLJ
 70
     1
  9
$DIMTZIN
 70
     0
  9
$DIMALTZ
 70
     0
  9
$DIMALTTZ
 70
     0
  9
$DIMUPT
 70
     0
  9
$DIMDEC
 70
     4
  9
$DIMTDEC
 70
     4
  9
$DIMALTU
 70
     2
  9
$DIMALTTD
 70
     2
  9
$DIMTXSTY
  7
Standard
  9
$DIMAUNIT
 70
     0
  9
$DIMADEC
 70
     0
  9
$DIMALTRND
 40
0.0
  9
$DIMAZIN
 70
     0
  9
$DIMDSEP
 70
    46
  9
$DIMATFIT
 70
     3
  9
$DIMFRAC
 70
     0
  9
$DIMLDRBLK
  1

  9
$DIMLUNIT
 70
     2
  9
$DIMLWD
 70
    -2
  9
$DIMLWE
 70
    -2
  9
$DIMTMOVE
 70
     0
  9
$DIMFXL
 40
1.0
  9
$DIMFXLON
 70
     0
  9
$DIMJOGANG
 40
0.7853981633974483
  9
$DIMTFILL
 70
     0
  9
$DIMTFILLCLR
 70
     0
  9
$DIMARCSYM
 70
     0
  9
$DIMLTYPE
  6

  9
$DIMLTEX1
  6

  9
$DIMLTEX2
  6

  9
$DIMTXTDIRECTION
 70
     0
  9
$LUNITS
 70
     2
  9
$LUPREC
 70
     4
  9
$SKETCHINC
 40
0.1
  9
$FILLETRAD
 40
0.5
  9
$AUNITS
 70
     0
  9
$AUPREC
 70
     0
  9
$MENU
  1
.
  9
$ELEVATION
 40
0.0
  9
$PELEVATION
 40
0.0
  9
$THICKNESS
 40
0.0
  9
$LIMCHECK
 70
     0
  9
$CHAMFERA
 40
0.5
  9
$CHAMFERB
 40
0.5
  9
$CHAMFERC
 40
1.0
  9
$CHAMFERD
 40
0.0
  9
$SKPOLY
 70
     0
  9
$TDCREATE
 40
2457265.063645822
  9
$TDUCREATE
 40
2457265.021979167
  9
$TDUPDATE
 40
2457265.063645822
  9
$TDUUPDATE
 40
2457265.021979167
  9
$TDINDWG
 40
0.0000000116
  9
$TDUSRTIMER
 40
0.0000000116
  9
$USRTIMER
 70
     1
  9
$ANGBASE
 50
0.0
  9
$ANGDIR
 70
     0
  9
$PDMODE
 70
     0
  9
$PDSIZE
 40
0.0
  9
$PLINEWID
 40
0.0
  9
$SPLFRAME
 70
     0
  9
$SPLINETYPE
 70
     6
  9
$SPLINESEGS
 70
     8
  9
$HANDSEED
  5
5B
  9
$SURFTAB1
 70
     6
  9
$SURFTAB2
 70
     6
  9
$SURFTYPE
 70
     6
  9
$SURFU
 70
     6
  9
$SURFV
 70
     6
  9
$UCSBASE
  2

  9
$UCSNAME
  2

  9
$UCSORG
 10
0.0
 20
0.0
 30
0.0
  9
$UCSXDIR
 10
1.0
 20
0.0
 30
0.0
  9
$UCSYDIR
 10
0.0
 20
1.0
 30
0.0
  9
$UCSORTHOREF
  2

  9
$UCSORTHOVIEW
 70
     0
  9
$UCSORGTOP
 10
0.0
 20
0.0
 30
0.0
  9
$UCSORGBOTTOM
 10
0.0
 20
0.0
 30
0.0
  9
$UCSORGLEFT
 10
0.0
 20
0.0
 30
0.0
  9
$UCSORGRIGHT
 10
0.0
 20
0.0
 30
0.0
  9
$UCSORGFRONT
 10
0.0
 20
0.0
 30
0.0
  9
$UCSORGBACK
 10
0.0
 20
0.0
 30
0.0
  9
$PUCSBASE
  2

  9
$PUCSNAME
  2

  9
$PUCSORG
 10
0.0
 20
0.0
 30
0.0
  9
$PUCSXDIR
 10
1.0
 20
0.0
 30
0.0
  9
$PUCSYDIR
 10
0.0
 20
1.0
 30
0.0
  9
$PUCSORTHOREF
  2

  9
$PUCSORTHOVIEW
 70
     0
  9
$PUCSORGTOP
 10
0.0
 20
0.0
 30
0.0
  9
$PUCSORGBOTTOM
 10
0.0
 20
0.0
 30
0.0
  9
$PUCSORGLEFT
 10
0.0
 20
0.0
 30
0.0
  9
$PUCSORGRIGHT
 10
0.0
 20
0.0
 30
0.0
  9
$PUCSORGFRONT
 10
0.0
 20
0.0
 30
0.0
  9
$PUCSORGBACK
 10
0.0
 20
0.0
 30
0.0
  9
$USERI1
 70
     0
  9
$USERI2
 70
     0
  9
$USERI3
 70
     0
  9
$USERI4
 70
     0
  9
$USERI5
 70
     0
  9
$USERR1
 40
0.0
  9
$USERR2
 40
0.0
  9
$USERR3
 40
0.0
  9
$USERR4
 40
0.0
  9
$USERR5
 40
0.0
  9
$WORLDVIEW
 70
     1
  9
$SHADEDGE
 70
     3
  9
$SHADEDIF
 70
    70
  9
$TILEMODE
 70
     1
  9
$MAXACTVP
 70
    64
  9
$PINSBASE
 10
0.0
 20
0.0
 30
0.0
  9
$PLIMCHECK
 70
     0
  9
$PEXTMIN
 10
1.000000000000000E+20
 20
1.000000000000000E+20
 30
1.000000000000000E+20
  9
$PEXTMAX
 10
-1.000000000000000E+20
 20
-1.000000000000000E+20
 30
-1.000000000000000E+20
  9
$PLIMMIN
 10
0.0
 20
0.0
  9
$PLIMMAX
 10
12.0
 20
9.0
  9
$UNITMODE
 70
     0
  9
$VISRETAIN
 70
     1
  9
$PLINEGEN
 70
     0
  9
$PSLTSCALE
 70
     1
  9
$TREEDEPTH
 70
  3020
  9
$CMLSTYLE
  2
Standard
  9
$CMLJUST
 70
     0
  9
$CMLSCALE
 40
1.0
  9
$PROXYGRAPHICS
 70
     1
  9
$MEASUREMENT
 70
     0
  9
$CELWEIGHT
370
    -1
  9
$ENDCAPS
280
     0
  9
$JOINSTYLE
280
     0
  9
$LWDISPLAY
290
     1
  9
$INSUNITS
 70
     1
  9
$HYPERLINKBASE
  1

  9
$STYLESHEET
  1

  9
$XEDIT
290
     1
  9
$CEPSNTYPE
380
     0
  9
$PSTYLEMODE
290
     1
  9
$FINGERPRINTGUID
  2
{9D4EF7E6-965D-218C-63EF-A659D6125780}
  9
$VERSIONGUID
  2
{FAEB1C32-E019-11D5-929B-00C0DF256EC4}
  9
$EXTNAMES
290
     1
  9
$PSVPSCALE
 40
0.0
  9
$OLESTARTUP
290
     0
  9
$SORTENTS
280
   127
  9
$INDEXCTL
280
     0
  9
$HIDETEXT
280
     1
  9
$XCLIPFRAME
280
     2
  9
$HALOGAP
280
     0
  9
$OBSCOLOR
 70
   257
  9
$OBSLTYPE
280
     0
  9
$INTERSECTIONDISPLAY
280
     0
  9
$INTERSECTIONCOLOR
 70
   257
  9
$DIMASSOC
280
     2
  9
$PROJECTNAME
  1

  9
$CAMERADISPLAY
290
     0
  9
$LENSLENGTH
 40
50.0
  9
$CAMERAHEIGHT
 40
0.0
  9
$STEPSPERSEC
 40
2.0
  9
$STEPSIZE
 40
6.0
  9
$3DDWFPREC
 40
2.0
  9
$PSOLWIDTH
 40
0.25
  9
$PSOLHEIGHT
 40
4.0
  9
$LOFTANG1
 40
1.570796326794897
  9
$LOFTANG2
 40
1.570796326794897
  9
$LOFTMAG1
 40
0.0
  9
$LOFTMAG2
 40
0.0
  9
$LOFTPARAM
 70
     7
  9
$LOFTNORMALS
280
     1
  9
$LATITUDE
 40
37.795
  9
$LONGITUDE
 40
-122.394
  9
$NORTHDIRECTION
 40
0.0
  9
$TIMEZONE
 70
 -8000
  9
$LIGHTGLYPHDISPLAY
280
     1
  9
$TILEMODELIGHTSYNCH
280
     1
  9
$CMATERIAL
347
3C
  9
$SOLIDHIST
280
     1
  9
$SHOWHIST
280
     1
  9
$DWFFRAME
280
     2
  9
$DGNFRAME
280
     2
  9
$REALWORLDSCALE
290
     1
  9
$INTERFERECOLOR
 62
   256
  9
$CSHADOW
280
     0
  9
$SHADOWPLANELOCATION
 40
0.0
  0
ENDSEC
  0
SECTION
  2
CLASSES
  0
CLASS
  1
ACDBDICTIONARYWDFLT
  2
AcDbDictionaryWithDefault
  3
ObjectDBX Classes
 90
        0
 91
        4
280
     0
281
     0
  0
CLASS
  1
VISUALSTYLE
  2
AcDbVisualStyle
  3
ObjectDBX Classes
 90
     4095
 91
        4
280
     0
281
     0
  0
CLASS
  1
MATERIAL
  2
AcDbMaterial
  3
ObjectDBX Classes
 90
     1153
 91
        4
280
     0
281
     0
  0
CLASS
  1
SUN
  2
AcDbSun
  3
SCENEOE
 90
     1024
 91
        4
280
     0
281
     0
  0
ENDSEC
  0
SECTION
  2
TABLES
  0
TABLE
  2
VPORT
  5
8
330
0
100
AcDbSymbolTable
 70
     1
  0
VPORT
  5
29
330
8
100
AcDbSymbolTableRecord
100
AcDbViewportTableRecord
  2
*Active
 70
     0
 10
0.0
 20
0.0
 11
1.0
 21
1.0
 12
0.0
 22
0.0
 13
0.0
 23
0.0
 14
0.5
 24
0.5
 15
0.5
 25
0.5
 16
0.0
 26
0.0
 36
1.0
 17
184.6810807430156
 27
-166.4117464091385
 37
0.0
 40
575.3504473337887
 41
0.7299891486565082
 42
50.0
 43
0.0
 44
0.0
 50
0.0
 51
0.0
 71
     0
 72
   100
 73
     1
 74
     3
 75
     0
 76
     0
 77
     0
 78
     0
281
     0
 65
     1
110
0.0
120
0.0
130
0.0
111
1.0
121
0.0
131
0.0
112
0.0
122
1.0
132
0.0
 79
     0
146
0.0
 60
     3
 61
     5
292
     1
282
     1
141
0.0
142
0.0
 63
   250
361
3F
  0
ENDTAB
  0
TABLE
  2
LTYPE
  5
5
330
0
100
AcDbSymbolTable
 70
     1
  0
LTYPE
  5
14
330
5
100
AcDbSymbolTableRecord
100
AcDbLinetypeTableRecord
  2
ByBlock
 70
     0
  3

 72
    65
 73
     0
 40
0.0
  0
LTYPE
  5
15
330
5
100
AcDbSymbolTableRecord
100
AcDbLinetypeTableRecord
  2
ByLayer
 70
     0
  3

 72
    65
 73
     0
 40
0.0
  0
LTYPE
  5
16
330
5
100
AcDbSymbolTableRecord
100
AcDbLinetypeTableRecord
  2
Continuous
 70
     0
  3
Solid line
 72
    65
 73
     0
 40
0.0
  0
ENDTAB
  0
TABLE
  2
LAYER
  5
2
330
0
100
AcDbSymbolTable
 70
     2
  0
LAYER
  5
10
330
2
100
AcDbSymbolTableRecord
100
AcDbLayerTableRecord
  2
0
 70
     0
 62
     7
  6
Continuous
370
    -3
390
F
347
3E
  0
LAYER
  5
40
330
2
100
AcDbSymbolTableRecord
100
AcDbLayerTableRecord
  2
Layer 1
 70
     0
 62
     7
  6
Continuous
370
    -3
390
F
347
3E
  0
ENDTAB
  0
TABLE
  2
STYLE
  5
3
330
0
100
AcDbSymbolTable
 70
     1
  0
STYLE
  5
11
330
3
100
AcDbSymbolTableRecord
100
AcDbTextStyleTableRecord
  2
Standard
 70
     0
 40
0.0
 41
1.0
 50
0.0
 71
     0
 42
0.2
  3
txt
  4

  0
ENDTAB
  0
TABLE
  2
VIEW
  5
6
330
0
100
AcDbSymbolTable
 70
     0
  0
ENDTAB
  0
TABLE
  2
UCS
  5
7
330
0
100
AcDbSymbolTable
 70
     0
  0
ENDTAB
  0
TABLE
  2
APPID
  5
9
330
0
100
AcDbSymbolTable
 70
     1
  0
APPID
  5
12
330
9
100
AcDbSymbolTableRecord
100
AcDbRegAppTableRecord
  2
ACAD
 70
     0
  0
ENDTAB
  0
TABLE
  2
DIMSTYLE
  5
A
330
0
100
AcDbSymbolTable
 70
     1
100
AcDbDimStyleTable
  0
DIMSTYLE
105
27
330
A
100
AcDbSymbolTableRecord
100
AcDbDimStyleTableRecord
  2
Standard
 70
     0
178
     0
340
11
  0
ENDTAB
  0
TABLE
  2
BLOCK_RECORD
  5
1
330
0
100
AcDbSymbolTable
 70
     4
  0
BLOCK_RECORD
  5
1F
330
1
100
AcDbSymbolTableRecord
100
AcDbBlockTableRecord
  2
*Model_Space
340
22
 70
     0
280
     1
281
     0
  0
BLOCK_RECORD
  5
1B
330
1
100
AcDbSymbolTableRecord
100
AcDbBlockTableRecord
  2
*Paper_Space
340
1E
 70
     0
280
     1
281
     0
  0
BLOCK_RECORD
  5
23
330
1
100
AcDbSymbolTableRecord
100
AcDbBlockTableRecord
  2
*Paper_Space0
340
26
 70
     0
280
     1
281
     0
  0
BLOCK_RECORD
  5
41
330
1
100
AcDbSymbolTableRecord
100
AcDbBlockTableRecord
  2
block 2
340
0
102
{BLKREFS
331
42
102
}
 70
     0
280
     1
281
     0
  0
BLOCK_RECORD
  5
49
330
1
100
AcDbSymbolTableRecord
100
AcDbBlockTableRecord
  2
block 3
340
0
102
{BLKREFS
331
4A
102
}
 70
     0
280
     1
281
     0
  0
BLOCK_RECORD
  5
51
330
1
100
AcDbSymbolTableRecord
100
AcDbBlockTableRecord
  2
block 4
340
0
102
{BLKREFS
331
52
102
}
 70
     0
280
     1
281
     0
  0
ENDTAB
  0
ENDSEC
  0
SECTION
  2
BLOCKS
  0
BLOCK
  5
20
330
1F
100
AcDbEntity
  8
0
100
AcDbBlockBegin
  2
*Model_Space
 70
     0
 10
0.0
 20
0.0
 30
0.0
  3
*Model_Space
  1

  0
ENDBLK
  5
21
330
1F
100
AcDbEntity
  8
0
100
AcDbBlockEnd
  0
BLOCK
  5
1C
330
1B
100
AcDbEntity
 67
     1
  8
0
100
AcDbBlockBegin
  2
*Paper_Space
 70
     0
 10
0.0
 20
0.0
 30
0.0
  3
*Paper_Space
  1

  0
ENDBLK
  5
1D
330
1B
100
AcDbEntity
 67
     1
  8
0
100
AcDbBlockEnd
  0
BLOCK
  5
24
330
23
100
AcDbEntity
  8
0
100
AcDbBlockBegin
  2
*Paper_Space0
 70
     0
 10
0.0
 20
0.0
 30
0.0
  3
*Paper_Space0
  1

  0
ENDBLK
  5
25
330
23
100
AcDbEntity
  8
0
100
AcDbBlockEnd
  0
BLOCK
  5
43
330
41
100
AcDbEntity
  8
0
100
AcDbBlockBegin
  2
block 2
 70
     0
 10
0.0
 20
0.0
 30
0.0
  3
block 2
  1

  0
SPLINE
  5
45
330
41
100
AcDbEntity
  8
Layer 1
370
     0
100
AcDbSpline
210
0.0
220
0.0
230
1.0
 70
    11
 71
     3
 72
    98
 73
    94
 74
     0
 42
0.0000000001
 43
0.0000000001
 12
1.0
 22
0.0
 32
0.0
 13
1.0
 23
0.0
 33
0.0
 40
0.0
 40
0.0
 40
0.0
 40
0.0
 40
1.0
 40
1.0
 40
1.0
 40
2.0
 40
2.0
 40
2.0
 40
3.0
 40
3.0
 40
3.0
 40
4.0
 40
4.0
 40
4.0
 40
5.0
 40
5.0
 40
5.0
 40
6.0
 40
6.0
 40
6.0
 40
7.0
 40
7.0
 40
7.0
 40
8.0
 40
8.0
 40
8.0
 40
9.0
 40
9.0
 40
9.0
 40
10.0
 40
10.0
 40
10.0
 40
11.0
 40
11.0
 40
11.0
 40
12.0
 40
12.0
 40
12.0
 40
13.0
 40
13.0
 40
13.0
 40
14.0
 40
14.0
 40
14.0
 40
15.0
 40
15.0
 40
15.0
 40
16.0
 40
16.0
 40
16.0
 40
17.0
 40
17.0
 40
17.0
 40
18.0
 40
18.0
 40
18.0
 40
19.0
 40
19.0
 40
19.0
 40
20.0
 40
20.0
 40
20.0
 40
21.0
 40
21.0
 40
21.0
 40
22.0
 40
22.0
 40
22.0
 40
23.0
 40
23.0
 40
23.0
 40
24.0
 40
24.0
 40
24.0
 40
25.0
 40
25.0
 40
25.0
 40
26.0
 40
26.0
 40
26.0
 40
27.0
 40
27.0
 40
27.0
 40
28.0
 40
28.0
 40
28.0
 40
29.0
 40
29.0
 40
29.0
 40
30.0
 40
30.0
 40
30.0
 40
31.0
 40
31.0
 40
31.0
 40
31.0
 10
309.5133965460205
 20
-142.0341770628611
 30
0.0
 10
309.5133965460205
 20
-142.0341770628611
 30
0.0
 10
309.5133965460205
 20
-22.78914245459628
 30
0.0
 10
309.5133965460205
 20
-22.78914245459628
 30
0.0
 10
309.5131812275533
 20
-21.4291910117939
 30
0.0
 10
308.4105999493459
 20
-20.32671739282039
 30
0.0
 10
307.0505623791564
 20
-20.32671739282039
 30
0.0
 10
307.0505623791564
 20
-20.32671739282039
 30
0.0
 10
307.0506700383897
 20
-20.32869832272441
 30
0.0
 10
307.0506700383897
 20
-20.32869832272441
 30
0.0
 10
245.9326090727664
 20
-20.42770175423178
 30
0.0
 10
255.9783567848275
 20
-24.21941690899131
 30
0.0
 10
227.9834032124534
 20
-24.21941690899131
 30
0.0
 10
227.9834032124534
 20
-24.21941690899131
 30
0.0
 10
228.0434340012839
 20
-24.21941690899131
 30
0.0
 10
228.0434340012839
 20
-24.21941690899131
 30
0.0
 10
227.2150177281626
 20
-24.21941690899131
 30
0.0
 10
226.5434394270061
 20
-24.8909952101472
 30
0.0
 10
226.5434394270061
 20
-25.71943301511588
 30
0.0
 10
226.5434394270061
 20
-25.71943301511588
 30
0.0
 10
226.5434394270061
 20
-52.65799112063199
 30
0.0
 10
226.5434394270061
 20
-52.65799112063199
 30
0.0
 10
226.5434394270061
 20
-52.65799112063199
 30
0.0
 10
226.5514923377035
 20
-52.65799112063199
 30
0.0
 10
226.5514923377035
 20
-52.65799112063199
 30
0.0
 10
226.5514923377035
 20
-55.23905665818117
 30
0.0
 10
224.4591351265838
 20
-57.33141386930087
 30
0.0
 10
221.8780695890346
 20
-57.33141386930087
 30
0.0
 10
221.8780695890346
 20
-57.33141386930087
 30
0.0
 10
221.8433817838669
 20
-57.33102629605814
 30
0.0
 10
221.8433817838669
 20
-57.33102629605814
 30
0.0
 10
221.8433817838669
 20
-57.33102629605814
 30
0.0
 10
221.8084140646916
 20
-57.3336316495195
 30
0.0
 10
221.7456917950139
 20
-57.33821793288424
 30
0.0
 10
221.7456917950139
 20
-57.33821793288424
 30
0.0
 10
221.7288323589823
 20
-57.33102629605814
 30
0.0
 10
221.7288323589823
 20
-57.33102629605814
 30
0.0
 10
221.7288323589823
 20
-57.33102629605814
 30
0.0
 10
195.6792380797423
 20
-59.26198078369453
 30
0.0
 10
154.4365358602353
 20
-59.26999063069774
 30
0.0
 10
113.1938336407282
 20
-59.26198078369453
 30
0.0
 10
87.14421782964081
 20
-57.33102629605814
 30
0.0
 10
87.14421782964081
 20
-57.33102629605814
 30
0.0
 10
87.14421782964081
 20
-57.33102629605814
 30
0.0
 10
87.12735839360987
 20
-57.33821793288424
 30
0.0
 10
87.12735839360987
 20
-57.33821793288424
 30
0.0
 10
87.06463612393155
 20
-57.3336316495195
 30
0.0
 10
87.02966840475626
 20
-57.33102629605814
 30
0.0
 10
87.02966840475626
 20
-57.33102629605814
 30
0.0
 10
87.02966840475626
 20
-57.33102629605814
 30
0.0
 10
86.99498059958916
 20
-57.33141386930087
 30
0.0
 10
86.99498059958916
 20
-57.33141386930087
 30
0.0
 10
84.41393659388676
 20
-57.33141386930087
 30
0.0
 10
82.32155785092027
 20
-55.23905665818117
 30
0.0
 10
82.32155785092027
 20
-52.65799112063199
 30
0.0
 10
82.32155785092027
 20
-52.65799112063199
 30
0.0
 10
82.32961076161703
 20
-52.65799112063199
 30
0.0
 10
82.32961076161703
 20
-52.65799112063199
 30
0.0
 10
82.32961076161703
 20
-52.65799112063199
 30
0.0
 10
82.32961076161703
 20
-25.71943301511588
 30
0.0
 10
82.32961076161703
 20
-25.71943301511588
 30
0.0
 10
82.32961076161703
 20
-24.8909952101472
 30
0.0
 10
81.65805399230793
 20
-24.21941690899131
 30
0.0
 10
80.82961618733925
 20
-24.21941690899131
 30
0.0
 10
80.82961618733925
 20
-24.21941690899131
 30
0.0
 10
80.88964697616973
 20
-24.21941690899131
 30
0.0
 10
80.88964697616973
 20
-24.21941690899131
 30
0.0
 10
52.89469340379564
 20
-24.21941690899131
 30
0.0
 10
62.94044111585669
 20
-20.42770175423178
 30
0.0
 10
1.822380150233424
 20
-20.32869832272441
 30
0.0
 10
1.822380150233424
 20
-20.32869832272441
 30
0.0
 10
1.822487809467338
 20
-20.32671739282039
 30
0.0
 10
1.822487809467338
 20
-20.32671739282039
 30
0.0
 10
0.4622995163503539
 20
-20.32671739282039
 30
0.0
 10
-0.6403463573974221
 20
-21.42938479841495
 30
0.0
 10
-0.6403463573974221
 20
-22.78957309153193
 30
0.0
 10
-0.6403463573974221
 20
-22.78957309153193
 30
0.0
 10
-0.6403463573974221
 20
-142.0341770628611
 30
0.0
 10
-0.6403463573974221
 20
-142.0341770628611
 30
0.0
 10
-0.6403463573974221
 20
-142.5421563921612
 30
0.0
 10
-0.3863566927473779
 20
-142.9893297861466
 30
0.0
 10
-0.0000107659233914
 20
-143.2606956511498
 30
0.0
 10
-0.0000107659233914
 20
-143.2606956511498
 30
0.0
 10
0.3650440897275573
 20
-143.5341931689857
 30
0.0
 10
0.8596482168803571
 20
-143.5341931689857
 30
0.0
 10
1.354252344033157
 20
-143.5341931689857
 30
0.0
 10
307.5464418485878
 20
-143.5341931689857
 30
0.0
 10
308.0134019717428
 20
-143.5341931689857
 30
0.0
 10
308.4803620948983
 20
-143.5341931689857
 30
0.0
 10
308.8730609545465
 20
-143.260674119303
 30
0.0
 10
308.8730609545465
 20
-143.260674119303
 30
0.0
 10
309.2594068813705
 20
-142.9893082542992
 30
0.0
 10
309.5133965460205
 20
-142.5421563921612
 30
0.0
 10
309.5133965460205
 20
-142.0341770628611
 30
0.0
  0
HATCH
  5
46
330
41
100
AcDbEntity
  8
Layer 1
 62
   207
420
  7356556
100
AcDbHatch
 10
0.0
 20
0.0
 30
0.0
210
0.0
220
0.0
230
1.0
  2
SOLID
 70
     1
 71
     0
 91
        1
 92
        1
 93
        1
 72
     4
 94
        3
 73
     0
 74
     1
 95
       98
 96
       94
 40
0.0
 40
0.0
 40
0.0
 40
0.0
 40
1.0
 40
1.0
 40
1.0
 40
2.0
 40
2.0
 40
2.0
 40
3.0
 40
3.0
 40
3.0
 40
4.0
 40
4.0
 40
4.0
 40
5.0
 40
5.0
 40
5.0
 40
6.0
 40
6.0
 40
6.0
 40
7.0
 40
7.0
 40
7.0
 40
8.0
 40
8.0
 40
8.0
 40
9.0
 40
9.0
 40
9.0
 40
10.0
 40
10.0
 40
10.0
 40
11.0
 40
11.0
 40
11.0
 40
12.0
 40
12.0
 40
12.0
 40
13.0
 40
13.0
 40
13.0
 40
14.0
 40
14.0
 40
14.0
 40
15.0
 40
15.0
 40
15.0
 40
16.0
 40
16.0
 40
16.0
 40
17.0
 40
17.0
 40
17.0
 40
18.0
 40
18.0
 40
18.0
 40
19.0
 40
19.0
 40
19.0
 40
20.0
 40
20.0
 40
20.0
 40
21.0
 40
21.0
 40
21.0
 40
22.0
 40
22.0
 40
22.0
 40
23.0
 40
23.0
 40
23.0
 40
24.0
 40
24.0
 40
24.0
 40
25.0
 40
25.0
 40
25.0
 40
26.0
 40
26.0
 40
26.0
 40
27.0
 40
27.0
 40
27.0
 40
28.0
 40
28.0
 40
28.0
 40
29.0
 40
29.0
 40
29.0
 40
30.0
 40
30.0
 40
30.0
 40
31.0
 40
31.0
 40
31.0
 40
31.0
 10
309.5133965460205
 20
-142.0341770628611
 10
309.5133965460205
 20
-142.0341770628611
 10
309.5133965460205
 20
-22.78914245459628
 10
309.5133965460205
 20
-22.78914245459628
 10
309.5131812275533
 20
-21.4291910117939
 10
308.4105999493459
 20
-20.32671739282039
 10
307.0505623791564
 20
-20.32671739282039
 10
307.0505623791564
 20
-20.32671739282039
 10
307.0506700383897
 20
-20.32869832272441
 10
307.0506700383897
 20
-20.32869832272441
 10
245.9326090727664
 20
-20.42770175423178
 10
255.9783567848275
 20
-24.21941690899131
 10
227.9834032124534
 20
-24.21941690899131
 10
227.9834032124534
 20
-24.21941690899131
 10
228.0434340012839
 20
-24.21941690899131
 10
228.0434340012839
 20
-24.21941690899131
 10
227.2150177281626
 20
-24.21941690899131
 10
226.5434394270061
 20
-24.8909952101472
 10
226.5434394270061
 20
-25.71943301511588
 10
226.5434394270061
 20
-25.71943301511588
 10
226.5434394270061
 20
-52.65799112063199
 10
226.5434394270061
 20
-52.65799112063199
 10
226.5434394270061
 20
-52.65799112063199
 10
226.5514923377035
 20
-52.65799112063199
 10
226.5514923377035
 20
-52.65799112063199
 10
226.5514923377035
 20
-55.23905665818117
 10
224.4591351265838
 20
-57.33141386930087
 10
221.8780695890346
 20
-57.33141386930087
 10
221.8780695890346
 20
-57.33141386930087
 10
221.8433817838669
 20
-57.33102629605814
 10
221.8433817838669
 20
-57.33102629605814
 10
221.8433817838669
 20
-57.33102629605814
 10
221.8084140646916
 20
-57.3336316495195
 10
221.7456917950139
 20
-57.33821793288424
 10
221.7456917950139
 20
-57.33821793288424
 10
221.7288323589823
 20
-57.33102629605814
 10
221.7288323589823
 20
-57.33102629605814
 10
221.7288323589823
 20
-57.33102629605814
 10
195.6792380797423
 20
-59.26198078369453
 10
154.4365358602353
 20
-59.26999063069774
 10
113.1938336407282
 20
-59.26198078369453
 10
87.14421782964081
 20
-57.33102629605814
 10
87.14421782964081
 20
-57.33102629605814
 10
87.14421782964081
 20
-57.33102629605814
 10
87.12735839360987
 20
-57.33821793288424
 10
87.12735839360987
 20
-57.33821793288424
 10
87.06463612393155
 20
-57.3336316495195
 10
87.02966840475626
 20
-57.33102629605814
 10
87.02966840475626
 20
-57.33102629605814
 10
87.02966840475626
 20
-57.33102629605814
 10
86.99498059958916
 20
-57.33141386930087
 10
86.99498059958916
 20
-57.33141386930087
 10
84.41393659388676
 20
-57.33141386930087
 10
82.32155785092027
 20
-55.23905665818117
 10
82.32155785092027
 20
-52.65799112063199
 10
82.32155785092027
 20
-52.65799112063199
 10
82.32961076161703
 20
-52.65799112063199
 10
82.32961076161703
 20
-52.65799112063199
 10
82.32961076161703
 20
-52.65799112063199
 10
82.32961076161703
 20
-25.71943301511588
 10
82.32961076161703
 20
-25.71943301511588
 10
82.32961076161703
 20
-24.8909952101472
 10
81.65805399230793
 20
-24.21941690899131
 10
80.82961618733925
 20
-24.21941690899131
 10
80.82961618733925
 20
-24.21941690899131
 10
80.88964697616973
 20
-24.21941690899131
 10
80.88964697616973
 20
-24.21941690899131
 10
52.89469340379564
 20
-24.21941690899131
 10
62.94044111585669
 20
-20.42770175423178
 10
1.822380150233424
 20
-20.32869832272441
 10
1.822380150233424
 20
-20.32869832272441
 10
1.822487809467338
 20
-20.32671739282039
 10
1.822487809467338
 20
-20.32671739282039
 10
0.4622995163503539
 20
-20.32671739282039
 10
-0.6403463573974221
 20
-21.42938479841495
 10
-0.6403463573974221
 20
-22.78957309153193
 10
-0.6403463573974221
 20
-22.78957309153193
 10
-0.6403463573974221
 20
-142.0341770628611
 10
-0.6403463573974221
 20
-142.0341770628611
 10
-0.6403463573974221
 20
-142.5421563921612
 10
-0.3863566927473779
 20
-142.9893297861466
 10
-0.0000107659233914
 20
-143.2606956511498
 10
-0.0000107659233914
 20
-143.2606956511498
 10
0.3650440897275573
 20
-143.5341931689857
 10
0.8596482168803571
 20
-143.5341931689857
 10
1.354252344033157
 20
-143.5341931689857
 10
307.5464418485878
 20
-143.5341931689857
 10
308.0134019717428
 20
-143.5341931689857
 10
308.4803620948983
 20
-143.5341931689857
 10
308.8730609545465
 20
-143.260674119303
 10
308.8730609545465
 20
-143.260674119303
 10
309.2594068813705
 20
-142.9893082542992
 10
309.5133965460205
 20
-142.5421563921612
 10
309.5133965460205
 20
-142.0341770628611
 97
        0
 97
        0
 75
     2
 76
     1
 98
        0
  0
SPLINE
  5
47
330
41
100
AcDbEntity
  8
Layer 1
370
     0
100
AcDbSpline
210
0.0
220
0.0
230
1.0
 70
    11
 71
     3
 72
    14
 73
    10
 74
     0
 42
0.0000000001
 43
0.0000000001
 12
1.0
 22
0.0
 32
0.0
 13
1.0
 23
0.0
 33
0.0
 40
0.0
 40
0.0
 40
0.0
 40
0.0
 40
1.0
 40
1.0
 40
1.0
 40
2.0
 40
2.0
 40
2.0
 40
3.0
 40
3.0
 40
3.0
 40
3.0
 10
309.5133965460205
 20
-22.71584804814758
 30
0.0
 10
309.5133965460205
 20
-22.71584804814758
 30
0.0
 10
309.5133965460205
 20
-22.78914245459628
 30
0.0
 10
309.5133965460205
 20
-22.78914245459628
 30
0.0
 10
309.5133965460205
 20
-22.78929317752376
 30
0.0
 10
309.5134180778674
 20
-22.78942236860445
 30
0.0
 10
309.5134180778674
 20
-22.78942236860445
 30
0.0
 10
309.5134180778674
 20
-22.78942236860445
 30
0.0
 10
309.5133965460205
 20
-22.71584804814758
 30
0.0
 10
309.5133965460205
 20
-22.71584804814758
 30
0.0
  0
HATCH
  5
48
330
41
100
AcDbEntity
  8
Layer 1
 62
   207
420
  7356556
100
AcDbHatch
 10
0.0
 20
0.0
 30
0.0
210
0.0
220
0.0
230
1.0
  2
SOLID
 70
     1
 71
     0
 91
        1
 92
        1
 93
        1
 72
     4
 94
        3
 73
     0
 74
     1
 95
       14
 96
       10
 40
0.0
 40
0.0
 40
0.0
 40
0.0
 40
1.0
 40
1.0
 40
1.0
 40
2.0
 40
2.0
 40
2.0
 40
3.0
 40
3.0
 40
3.0
 40
3.0
 10
309.5133965460205
 20
-22.71584804814758
 10
309.5133965460205
 20
-22.71584804814758
 10
309.5133965460205
 20
-22.78914245459628
 10
309.5133965460205
 20
-22.78914245459628
 10
309.5133965460205
 20
-22.78929317752376
 10
309.5134180778674
 20
-22.78942236860445
 10
309.5134180778674
 20
-22.78942236860445
 10
309.5134180778674
 20
-22.78942236860445
 10
309.5133965460205
 20
-22.71584804814758
 10
309.5133965460205
 20
-22.71584804814758
 97
        0
 97
        0
 75
     2
 76
     1
 98
        0
  0
ENDBLK
  5
44
330
41
100
AcDbEntity
  8
0
100
AcDbBlockEnd
  0
BLOCK
  5
4B
330
49
100
AcDbEntity
  8
0
100
AcDbBlockBegin
  2
block 3
 70
     0
 10
0.0
 20
0.0
 30
0.0
  3
block 3
  1

  0
SPLINE
  5
4D
330
49
100
AcDbEntity
  8
Layer 1
370
     0
100
AcDbSpline
210
0.0
220
0.0
230
1.0
 70
    11
 71
     3
 72
    98
 73
    94
 74
     0
 42
0.0000000001
 43
0.0000000001
 12
1.0
 22
0.0
 32
0.0
 13
1.0
 23
0.0
 33
0.0
 40
0.0
 40
0.0
 40
0.0
 40
0.0
 40
1.0
 40
1.0
 40
1.0
 40
2.0
 40
2.0
 40
2.0
 40
3.0
 40
3.0
 40
3.0
 40
4.0
 40
4.0
 40
4.0
 40
5.0
 40
5.0
 40
5.0
 40
6.0
 40
6.0
 40
6.0
 40
7.0
 40
7.0
 40
7.0
 40
8.0
 40
8.0
 40
8.0
 40
9.0
 40
9.0
 40
9.0
 40
10.0
 40
10.0
 40
10.0
 40
11.0
 40
11.0
 40
11.0
 40
12.0
 40
12.0
 40
12.0
 40
13.0
 40
13.0
 40
13.0
 40
14.0
 40
14.0
 40
14.0
 40
15.0
 40
15.0
 40
15.0
 40
16.0
 40
16.0
 40
16.0
 40
17.0
 40
17.0
 40
17.0
 40
18.0
 40
18.0
 40
18.0
 40
19.0
 40
19.0
 40
19.0
 40
20.0
 40
20.0
 40
20.0
 40
21.0
 40
21.0
 40
21.0
 40
22.0
 40
22.0
 40
22.0
 40
23.0
 40
23.0
 40
23.0
 40
24.0
 40
24.0
 40
24.0
 40
25.0
 40
25.0
 40
25.0
 40
26.0
 40
26.0
 40
26.0
 40
27.0
 40
27.0
 40
27.0
 40
28.0
 40
28.0
 40
28.0
 40
29.0
 40
29.0
 40
29.0
 40
30.0
 40
30.0
 40
30.0
 40
31.0
 40
31.0
 40
31.0
 40
31.0
 10
309.5133965460205
 20
-344.6031731863645
 30
0.0
 10
309.5133965460205
 20
-344.6031731863645
 30
0.0
 10
309.5133965460205
 20
-174.6523857739713
 30
0.0
 10
309.5133965460205
 20
-174.6523857739713
 30
0.0
 10
309.5131812275533
 20
-173.2924343311689
 30
0.0
 10
308.4105999493459
 20
-172.1899607121954
 30
0.0
 10
307.0505623791564
 20
-172.1899607121954
 30
0.0
 10
307.0505623791564
 20
-172.1899607121954
 30
0.0
 10
307.0506700383897
 20
-172.1919416420994
 30
0.0
 10
307.0506700383897
 20
-172.1919416420994
 30
0.0
 10
245.9326090727664
 20
-172.2909450736068
 30
0.0
 10
255.9783567848275
 20
-176.0826602283663
 30
0.0
 10
227.9834032124534
 20
-176.0826602283663
 30
0.0
 10
227.9834032124534
 20
-176.0826602283663
 30
0.0
 10
228.0434340012839
 20
-176.0826602283663
 30
0.0
 10
228.0434340012839
 20
-176.0826602283663
 30
0.0
 10
227.2150177281626
 20
-176.0826602283663
 30
0.0
 10
226.5434394270061
 20
-176.7542385295222
 30
0.0
 10
226.5434394270061
 20
-177.5826763344909
 30
0.0
 10
226.5434394270061
 20
-177.5826763344909
 30
0.0
 10
226.5434394270061
 20
-204.5212344400067
 30
0.0
 10
226.5434394270061
 20
-204.5212344400067
 30
0.0
 10
226.5434394270061
 20
-204.5212344400067
 30
0.0
 10
226.5514923377035
 20
-204.5212344400067
 30
0.0
 10
226.5514923377035
 20
-204.5212344400067
 30
0.0
 10
226.5514923377035
 20
-207.1022999775559
 30
0.0
 10
224.4591351265838
 20
-209.1946571886756
 30
0.0
 10
221.8780695890346
 20
-209.1946571886756
 30
0.0
 10
221.8780695890346
 20
-209.1946571886756
 30
0.0
 10
221.8433817838669
 20
-209.1942696154328
 30
0.0
 10
221.8433817838669
 20
-209.1942696154328
 30
0.0
 10
221.8433817838669
 20
-209.1942696154328
 30
0.0
 10
221.8084140646916
 20
-209.1968749688942
 30
0.0
 10
221.7456917950139
 20
-209.2014612522589
 30
0.0
 10
221.7456917950139
 20
-209.2014612522589
 30
0.0
 10
221.7288323589823
 20
-209.1942696154328
 30
0.0
 10
221.7288323589823
 20
-209.1942696154328
 30
0.0
 10
221.7288323589823
 20
-209.1942696154328
 30
0.0
 10
195.6792380797423
 20
-211.1252241030692
 30
0.0
 10
154.4365358602353
 20
-211.1332339500724
 30
0.0
 10
113.1938336407282
 20
-211.1252241030692
 30
0.0
 10
87.14421782964081
 20
-209.1942696154328
 30
0.0
 10
87.14421782964081
 20
-209.1942696154328
 30
0.0
 10
87.14421782964081
 20
-209.1942696154328
 30
0.0
 10
87.12735839360987
 20
-209.2014612522589
 30
0.0
 10
87.12735839360987
 20
-209.2014612522589
 30
0.0
 10
87.06463612393155
 20
-209.1968749688942
 30
0.0
 10
87.02966840475626
 20
-209.1942696154328
 30
0.0
 10
87.02966840475626
 20
-209.1942696154328
 30
0.0
 10
87.02966840475626
 20
-209.1942696154328
 30
0.0
 10
86.99498059958916
 20
-209.1946571886756
 30
0.0
 10
86.99498059958916
 20
-209.1946571886756
 30
0.0
 10
84.41393659388676
 20
-209.1946571886756
 30
0.0
 10
82.32155785092027
 20
-207.1022999775559
 30
0.0
 10
82.32155785092027
 20
-204.5212344400067
 30
0.0
 10
82.32155785092027
 20
-204.5212344400067
 30
0.0
 10
82.32961076161703
 20
-204.5212344400067
 30
0.0
 10
82.32961076161703
 20
-204.5212344400067
 30
0.0
 10
82.32961076161703
 20
-204.5212344400067
 30
0.0
 10
82.32961076161703
 20
-177.5826763344909
 30
0.0
 10
82.32961076161703
 20
-177.5826763344909
 30
0.0
 10
82.32961076161703
 20
-176.7542385295222
 30
0.0
 10
81.65805399230793
 20
-176.0826602283663
 30
0.0
 10
80.82961618733925
 20
-176.0826602283663
 30
0.0
 10
80.82961618733925
 20
-176.0826602283663
 30
0.0
 10
80.88964697616973
 20
-176.0826602283663
 30
0.0
 10
80.88964697616973
 20
-176.0826602283663
 30
0.0
 10
52.89469340379564
 20
-176.0826602283663
 30
0.0
 10
62.94044111585669
 20
-172.2909450736068
 30
0.0
 10
1.822380150233424
 20
-172.1919416420994
 30
0.0
 10
1.822380150233424
 20
-172.1919416420994
 30
0.0
 10
1.822487809467338
 20
-172.1899607121954
 30
0.0
 10
1.822487809467338
 20
-172.1899607121954
 30
0.0
 10
0.4622995163503539
 20
-172.1899607121954
 30
0.0
 10
-0.6403463573974221
 20
-173.29262811779
 30
0.0
 10
-0.6403463573974221
 20
-174.652816410907
 30
0.0
 10
-0.6403463573974221
 20
-174.652816410907
 30
0.0
 10
-0.6403463573974221
 20
-344.6031731863645
 30
0.0
 10
-0.6403463573974221
 20
-344.6031731863645
 30
0.0
 10
-0.6403463573974221
 20
-345.1111525156646
 30
0.0
 10
-0.3863566927473779
 20
-345.5583259096501
 30
0.0
 10
-0.0000107659233914
 20
-345.8296917746532
 30
0.0
 10
-0.0000107659233914
 20
-345.8296917746532
 30
0.0
 10
0.3650440897275573
 20
-346.1031892924891
 30
0.0
 10
0.8596482168803571
 20
-346.1031892924891
 30
0.0
 10
1.354252344033157
 20
-346.1031892924891
 30
0.0
 10
307.5464418485878
 20
-346.1031892924891
 30
0.0
 10
308.0134019717428
 20
-346.1031892924891
 30
0.0
 10
308.4803620948983
 20
-346.1031892924891
 30
0.0
 10
308.8730609545465
 20
-345.8296702428064
 30
0.0
 10
308.8730609545465
 20
-345.8296702428064
 30
0.0
 10
309.2594068813705
 20
-345.5583043778026
 30
0.0
 10
309.5133965460205
 20
-345.1111525156646
 30
0.0
 10
309.5133965460205
 20
-344.6031731863645
 30
0.0
  0
HATCH
  5
4E
330
49
100
AcDbEntity
  8
Layer 1
 62
   207
420
  7356556
100
AcDbHatch
 10
0.0
 20
0.0
 30
0.0
210
0.0
220
0.0
230
1.0
  2
SOLID
 70
     1
 71
     0
 91
        1
 92
        1
 93
        1
 72
     4
 94
        3
 73
     0
 74
     1
 95
       98
 96
       94
 40
0.0
 40
0.0
 40
0.0
 40
0.0
 40
1.0
 40
1.0
 40
1.0
 40
2.0
 40
2.0
 40
2.0
 40
3.0
 40
3.0
 40
3.0
 40
4.0
 40
4.0
 40
4.0
 40
5.0
 40
5.0
 40
5.0
 40
6.0
 40
6.0
 40
6.0
 40
7.0
 40
7.0
 40
7.0
 40
8.0
 40
8.0
 40
8.0
 40
9.0
 40
9.0
 40
9.0
 40
10.0
 40
10.0
 40
10.0
 40
11.0
 40
11.0
 40
11.0
 40
12.0
 40
12.0
 40
12.0
 40
13.0
 40
13.0
 40
13.0
 40
14.0
 40
14.0
 40
14.0
 40
15.0
 40
15.0
 40
15.0
 40
16.0
 40
16.0
 40
16.0
 40
17.0
 40
17.0
 40
17.0
 40
18.0
 40
18.0
 40
18.0
 40
19.0
 40
19.0
 40
19.0
 40
20.0
 40
20.0
 40
20.0
 40
21.0
 40
21.0
 40
21.0
 40
22.0
 40
22.0
 40
22.0
 40
23.0
 40
23.0
 40
23.0
 40
24.0
 40
24.0
 40
24.0
 40
25.0
 40
25.0
 40
25.0
 40
26.0
 40
26.0
 40
26.0
 40
27.0
 40
27.0
 40
27.0
 40
28.0
 40
28.0
 40
28.0
 40
29.0
 40
29.0
 40
29.0
 40
30.0
 40
30.0
 40
30.0
 40
31.0
 40
31.0
 40
31.0
 40
31.0
 10
309.5133965460205
 20
-344.6031731863645
 10
309.5133965460205
 20
-344.6031731863645
 10
309.5133965460205
 20
-174.6523857739713
 10
309.5133965460205
 20
-174.6523857739713
 10
309.5131812275533
 20
-173.2924343311689
 10
308.4105999493459
 20
-172.1899607121954
 10
307.0505623791564
 20
-172.1899607121954
 10
307.0505623791564
 20
-172.1899607121954
 10
307.0506700383897
 20
-172.1919416420994
 10
307.0506700383897
 20
-172.1919416420994
 10
245.9326090727664
 20
-172.2909450736068
 10
255.9783567848275
 20
-176.0826602283663
 10
227.9834032124534
 20
-176.0826602283663
 10
227.9834032124534
 20
-176.0826602283663
 10
228.0434340012839
 20
-176.0826602283663
 10
228.0434340012839
 20
-176.0826602283663
 10
227.2150177281626
 20
-176.0826602283663
 10
226.5434394270061
 20
-176.7542385295222
 10
226.5434394270061
 20
-177.5826763344909
 10
226.5434394270061
 20
-177.5826763344909
 10
226.5434394270061
 20
-204.5212344400067
 10
226.5434394270061
 20
-204.5212344400067
 10
226.5434394270061
 20
-204.5212344400067
 10
226.5514923377035
 20
-204.5212344400067
 10
226.5514923377035
 20
-204.5212344400067
 10
226.5514923377035
 20
-207.1022999775559
 10
224.4591351265838
 20
-209.1946571886756
 10
221.8780695890346
 20
-209.1946571886756
 10
221.8780695890346
 20
-209.1946571886756
 10
221.8433817838669
 20
-209.1942696154328
 10
221.8433817838669
 20
-209.1942696154328
 10
221.8433817838669
 20
-209.1942696154328
 10
221.8084140646916
 20
-209.1968749688942
 10
221.7456917950139
 20
-209.2014612522589
 10
221.7456917950139
 20
-209.2014612522589
 10
221.7288323589823
 20
-209.1942696154328
 10
221.7288323589823
 20
-209.1942696154328
 10
221.7288323589823
 20
-209.1942696154328
 10
195.6792380797423
 20
-211.1252241030692
 10
154.4365358602353
 20
-211.1332339500724
 10
113.1938336407282
 20
-211.1252241030692
 10
87.14421782964081
 20
-209.1942696154328
 10
87.14421782964081
 20
-209.1942696154328
 10
87.14421782964081
 20
-209.1942696154328
 10
87.12735839360987
 20
-209.2014612522589
 10
87.12735839360987
 20
-209.2014612522589
 10
87.06463612393155
 20
-209.1968749688942
 10
87.02966840475626
 20
-209.1942696154328
 10
87.02966840475626
 20
-209.1942696154328
 10
87.02966840475626
 20
-209.1942696154328
 10
86.99498059958916
 20
-209.1946571886756
 10
86.99498059958916
 20
-209.1946571886756
 10
84.41393659388676
 20
-209.1946571886756
 10
82.32155785092027
 20
-207.1022999775559
 10
82.32155785092027
 20
-204.5212344400067
 10
82.32155785092027
 20
-204.5212344400067
 10
82.32961076161703
 20
-204.5212344400067
 10
82.32961076161703
 20
-204.5212344400067
 10
82.32961076161703
 20
-204.5212344400067
 10
82.32961076161703
 20
-177.5826763344909
 10
82.32961076161703
 20
-177.5826763344909
 10
82.32961076161703
 20
-176.7542385295222
 10
81.65805399230793
 20
-176.0826602283663
 10
80.82961618733925
 20
-176.0826602283663
 10
80.82961618733925
 20
-176.0826602283663
 10
80.88964697616973
 20
-176.0826602283663
 10
80.88964697616973
 20
-176.0826602283663
 10
52.89469340379564
 20
-176.0826602283663
 10
62.94044111585669
 20
-172.2909450736068
 10
1.822380150233424
 20
-172.1919416420994
 10
1.822380150233424
 20
-172.1919416420994
 10
1.822487809467338
 20
-172.1899607121954
 10
1.822487809467338
 20
-172.1899607121954
 10
0.4622995163503539
 20
-172.1899607121954
 10
-0.6403463573974221
 20
-173.29262811779
 10
-0.6403463573974221
 20
-174.652816410907
 10
-0.6403463573974221
 20
-174.652816410907
 10
-0.6403463573974221
 20
-344.6031731863645
 10
-0.6403463573974221
 20
-344.6031731863645
 10
-0.6403463573974221
 20
-345.1111525156646
 10
-0.3863566927473779
 20
-345.5583259096501
 10
-0.0000107659233914
 20
-345.8296917746532
 10
-0.0000107659233914
 20
-345.8296917746532
 10
0.3650440897275573
 20
-346.1031892924891
 10
0.8596482168803571
 20
-346.1031892924891
 10
1.354252344033157
 20
-346.1031892924891
 10
307.5464418485878
 20
-346.1031892924891
 10
308.0134019717428
 20
-346.1031892924891
 10
308.4803620948983
 20
-346.1031892924891
 10
308.8730609545465
 20
-345.8296702428064
 10
308.8730609545465
 20
-345.8296702428064
 10
309.2594068813705
 20
-345.5583043778026
 10
309.5133965460205
 20
-345.1111525156646
 10
309.5133965460205
 20
-344.6031731863645
 97
        0
 97
        0
 75
     2
 76
     1
 98
        0
  0
SPLINE
  5
4F
330
49
100
AcDbEntity
  8
Layer 1
370
     0
100
AcDbSpline
210
0.0
220
0.0
230
1.0
 70
    11
 71
     3
 72
    14
 73
    10
 74
     0
 42
0.0000000001
 43
0.0000000001
 12
1.0
 22
0.0
 32
0.0
 13
1.0
 23
0.0
 33
0.0
 40
0.0
 40
0.0
 40
0.0
 40
0.0
 40
1.0
 40
1.0
 40
1.0
 40
2.0
 40
2.0
 40
2.0
 40
3.0
 40
3.0
 40
3.0
 40
3.0
 10
309.5133965460205
 20
-174.5790913675226
 30
0.0
 10
309.5133965460205
 20
-174.5790913675226
 30
0.0
 10
309.5133965460205
 20
-174.6523857739713
 30
0.0
 10
309.5133965460205
 20
-174.6523857739713
 30
0.0
 10
309.5133965460205
 20
-174.6525364968988
 30
0.0
 10
309.5134180778674
 20
-174.6526656879795
 30
0.0
 10
309.5134180778674
 20
-174.6526656879795
 30
0.0
 10
309.5134180778674
 20
-174.6526656879795
 30
0.0
 10
309.5133965460205
 20
-174.5790913675226
 30
0.0
 10
309.5133965460205
 20
-174.5790913675226
 30
0.0
  0
HATCH
  5
50
330
49
100
AcDbEntity
  8
Layer 1
 62
   207
420
  7356556
100
AcDbHatch
 10
0.0
 20
0.0
 30
0.0
210
0.0
220
0.0
230
1.0
  2
SOLID
 70
     1
 71
     0
 91
        1
 92
        1
 93
        1
 72
     4
 94
        3
 73
     0
 74
     1
 95
       14
 96
       10
 40
0.0
 40
0.0
 40
0.0
 40
0.0
 40
1.0
 40
1.0
 40
1.0
 40
2.0
 40
2.0
 40
2.0
 40
3.0
 40
3.0
 40
3.0
 40
3.0
 10
309.5133965460205
 20
-174.5790913675226
 10
309.5133965460205
 20
-174.5790913675226
 10
309.5133965460205
 20
-174.6523857739713
 10
309.5133965460205
 20
-174.6523857739713
 10
309.5133965460205
 20
-174.6525364968988
 10
309.5134180778674
 20
-174.6526656879795
 10
309.5134180778674
 20
-174.6526656879795
 10
309.5134180778674
 20
-174.6526656879795
 10
309.5133965460205
 20
-174.5790913675226
 10
309.5133965460205
 20
-174.5790913675226
 97
        0
 97
        0
 75
     2
 76
     1
 98
        0
  0
ENDBLK
  5
4C
330
49
100
AcDbEntity
  8
0
100
AcDbBlockEnd
  0
BLOCK
  5
53
330
51
100
AcDbEntity
  8
0
100
AcDbBlockBegin
  2
block 4
 70
     0
 10
0.0
 20
0.0
 30
0.0
  3
block 4
  1

  0
SPLINE
  5
55
330
51
100
AcDbEntity
  8
Layer 1
370
     0
100
AcDbSpline
210
0.0
220
0.0
230
1.0
 70
    11
 71
     3
 72
    98
 73
    94
 74
     0
 42
0.0000000001
 43
0.0000000001
 12
1.0
 22
0.0
 32
0.0
 13
1.0
 23
0.0
 33
0.0
 40
0.0
 40
0.0
 40
0.0
 40
0.0
 40
1.0
 40
1.0
 40
1.0
 40
2.0
 40
2.0
 40
2.0
 40
3.0
 40
3.0
 40
3.0
 40
4.0
 40
4.0
 40
4.0
 40
5.0
 40
5.0
 40
5.0
 40
6.0
 40
6.0
 40
6.0
 40
7.0
 40
7.0
 40
7.0
 40
8.0
 40
8.0
 40
8.0
 40
9.0
 40
9.0
 40
9.0
 40
10.0
 40
10.0
 40
10.0
 40
11.0
 40
11.0
 40
11.0
 40
12.0
 40
12.0
 40
12.0
 40
13.0
 40
13.0
 40
13.0
 40
14.0
 40
14.0
 40
14.0
 40
15.0
 40
15.0
 40
15.0
 40
16.0
 40
16.0
 40
16.0
 40
17.0
 40
17.0
 40
17.0
 40
18.0
 40
18.0
 40
18.0
 40
19.0
 40
19.0
 40
19.0
 40
20.0
 40
20.0
 40
20.0
 40
21.0
 40
21.0
 40
21.0
 40
22.0
 40
22.0
 40
22.0
 40
23.0
 40
23.0
 40
23.0
 40
24.0
 40
24.0
 40
24.0
 40
25.0
 40
25.0
 40
25.0
 40
26.0
 40
26.0
 40
26.0
 40
27.0
 40
27.0
 40
27.0
 40
28.0
 40
28.0
 40
28.0
 40
29.0
 40
29.0
 40
29.0
 40
30.0
 40
30.0
 40
30.0
 40
31.0
 40
31.0
 40
31.0
 40
31.0
 10
309.5134073119439
 20
1.476518805452286
 30
0.0
 10
309.5134073119439
 20
1.476518805452286
 30
0.0
 10
309.5134073119439
 20
72.0140952513053
 30
0.0
 10
309.5134073119439
 20
72.0140952513053
 30
0.0
 10
309.5131919934768
 20
73.37404669410768
 30
0.0
 10
308.4106107152693
 20
74.4765203130812
 30
0.0
 10
307.0505731450798
 20
74.4765203130812
 30
0.0
 10
307.0505731450798
 20
74.4765203130812
 30
0.0
 10
307.0506808043131
 20
74.47453938317717
 30
0.0
 10
307.0506808043131
 20
74.47453938317717
 30
0.0
 10
245.9326198386898
 20
74.3755359516698
 30
0.0
 10
255.9783675507509
 20
70.58382079691027
 30
0.0
 10
227.9834139783768
 20
70.58382079691027
 30
0.0
 10
227.9834139783768
 20
70.58382079691027
 30
0.0
 10
228.0434447672073
 20
70.58382079691027
 30
0.0
 10
228.0434447672073
 20
70.58382079691027
 30
0.0
 10
227.215028494086
 20
70.58382079691027
 30
0.0
 10
226.5434501929295
 20
69.91224249575438
 30
0.0
 10
226.5434501929295
 20
69.08380469078571
 30
0.0
 10
226.5434501929295
 20
69.08380469078571
 30
0.0
 10
226.5434501929295
 20
42.14524658526992
 30
0.0
 10
226.5434501929295
 20
42.14524658526992
 30
0.0
 10
226.5434501929295
 20
42.14524658526992
 30
0.0
 10
226.5515031036269
 20
42.14524658526992
 30
0.0
 10
226.5515031036269
 20
42.14524658526992
 30
0.0
 10
226.5515031036269
 20
39.56418104772074
 30
0.0
 10
224.4591458925072
 20
37.47182383660103
 30
0.0
 10
221.878080354958
 20
37.47182383660103
 30
0.0
 10
221.878080354958
 20
37.47182383660103
 30
0.0
 10
221.8433925497903
 20
37.47221140984312
 30
0.0
 10
221.8433925497903
 20
37.47221140984312
 30
0.0
 10
221.8433925497903
 20
37.47221140984312
 30
0.0
 10
221.808424830615
 20
37.4696060563824
 30
0.0
 10
221.7457025609373
 20
37.46501977301767
 30
0.0
 10
221.7457025609373
 20
37.46501977301767
 30
0.0
 10
221.7288431249057
 20
37.47221140984312
 30
0.0
 10
221.7288431249057
 20
37.47221140984312
 30
0.0
 10
221.7288431249057
 20
37.47221140984312
 30
0.0
 10
195.6792488456657
 20
35.54125692220737
 30
0.0
 10
154.4365466261587
 20
35.53324707520417
 30
0.0
 10
113.1938444066516
 20
35.54125692220737
 30
0.0
 10
87.1442285955642
 20
37.47221140984312
 30
0.0
 10
87.1442285955642
 20
37.47221140984312
 30
0.0
 10
87.1442285955642
 20
37.47221140984312
 30
0.0
 10
87.12736915953359
 20
37.46501977301767
 30
0.0
 10
87.12736915953359
 20
37.46501977301767
 30
0.0
 10
87.06464688985494
 20
37.4696060563824
 30
0.0
 10
87.02967917067966
 20
37.47221140984312
 30
0.0
 10
87.02967917067966
 20
37.47221140984312
 30
0.0
 10
87.02967917067966
 20
37.47221140984312
 30
0.0
 10
86.99499136551286
 20
37.47182383660103
 30
0.0
 10
86.99499136551286
 20
37.47182383660103
 30
0.0
 10
84.41394735981015
 20
37.47182383660103
 30
0.0
 10
82.32156861684366
 20
39.56418104772074
 30
0.0
 10
82.32156861684366
 20
42.14524658526992
 30
0.0
 10
82.32156861684366
 20
42.14524658526992
 30
0.0
 10
82.32962152754043
 20
42.14524658526992
 30
0.0
 10
82.32962152754043
 20
42.14524658526992
 30
0.0
 10
82.32962152754043
 20
42.14524658526992
 30
0.0
 10
82.32962152754043
 20
69.08380469078571
 30
0.0
 10
82.32962152754043
 20
69.08380469078571
 30
0.0
 10
82.32962152754043
 20
69.91224249575438
 30
0.0
 10
81.65806475823132
 20
70.58382079691027
 30
0.0
 10
80.82962695326265
 20
70.58382079691027
 30
0.0
 10
80.82962695326265
 20
70.58382079691027
 30
0.0
 10
80.88965774209312
 20
70.58382079691027
 30
0.0
 10
80.88965774209312
 20
70.58382079691027
 30
0.0
 10
52.89470416971903
 20
70.58382079691027
 30
0.0
 10
62.94045188178008
 20
74.3755359516698
 30
0.0
 10
1.822390916156815
 20
74.47453938317717
 30
0.0
 10
1.822390916156815
 20
74.47453938317717
 30
0.0
 10
1.82249857539073
 20
74.4765203130812
 30
0.0
 10
1.82249857539073
 20
74.4765203130812
 30
0.0
 10
0.4623102822737454
 20
74.4765203130812
 30
0.0
 10
-0.6403355914740307
 20
73.37385290748664
 30
0.0
 10
-0.6403355914740307
 20
72.01366461436965
 30
0.0
 10
-0.6403355914740307
 20
72.01366461436965
 30
0.0
 10
-0.6403355914740307
 20
1.476518805452286
 30
0.0
 10
-0.6403355914740307
 20
1.476518805452286
 30
0.0
 10
-0.6403355914740307
 20
0.9685394761521976
 30
0.0
 10
-0.3863459268239864
 20
0.5213660821667687
 30
0.0
 10
0.0
 20
0.2500002171629956
 30
0.0
 10
0.0
 20
0.2500002171629956
 30
0.0
 10
0.3650548556509486
 20
-0.0234973006722758
 30
0.0
 10
0.8596589828037485
 20
-0.0234973006722758
 30
0.0
 10
1.354263109956548
 20
-0.0234973006722758
 30
0.0
 10
307.5464526145112
 20
-0.0234973006722758
 30
0.0
 10
308.0134127376662
 20
-0.0234973006722758
 30
0.0
 10
308.4803728608217
 20
-0.0234973006722758
 30
0.0
 10
308.8730717204699
 20
0.2500217490097784
 30
0.0
 10
308.8730717204699
 20
0.2500217490097784
 30
0.0
 10
309.2594176472939
 20
0.5213876140135516
 30
0.0
 10
309.5134073119439
 20
0.9685394761521976
 30
0.0
 10
309.5134073119439
 20
1.476518805452286
 30
0.0
  0
HATCH
  5
56
330
51
100
AcDbEntity
  8
Layer 1
 62
   207
420
  7356556
100
AcDbHatch
 10
0.0
 20
0.0
 30
0.0
210
0.0
220
0.0
230
1.0
  2
SOLID
 70
     1
 71
     0
 91
        1
 92
        1
 93
        1
 72
     4
 94
        3
 73
     0
 74
     1
 95
       98
 96
       94
 40
0.0
 40
0.0
 40
0.0
 40
0.0
 40
1.0
 40
1.0
 40
1.0
 40
2.0
 40
2.0
 40
2.0
 40
3.0
 40
3.0
 40
3.0
 40
4.0
 40
4.0
 40
4.0
 40
5.0
 40
5.0
 40
5.0
 40
6.0
 40
6.0
 40
6.0
 40
7.0
 40
7.0
 40
7.0
 40
8.0
 40
8.0
 40
8.0
 40
9.0
 40
9.0
 40
9.0
 40
10.0
 40
10.0
 40
10.0
 40
11.0
 40
11.0
 40
11.0
 40
12.0
 40
12.0
 40
12.0
 40
13.0
 40
13.0
 40
13.0
 40
14.0
 40
14.0
 40
14.0
 40
15.0
 40
15.0
 40
15.0
 40
16.0
 40
16.0
 40
16.0
 40
17.0
 40
17.0
 40
17.0
 40
18.0
 40
18.0
 40
18.0
 40
19.0
 40
19.0
 40
19.0
 40
20.0
 40
20.0
 40
20.0
 40
21.0
 40
21.0
 40
21.0
 40
22.0
 40
22.0
 40
22.0
 40
23.0
 40
23.0
 40
23.0
 40
24.0
 40
24.0
 40
24.0
 40
25.0
 40
25.0
 40
25.0
 40
26.0
 40
26.0
 40
26.0
 40
27.0
 40
27.0
 40
27.0
 40
28.0
 40
28.0
 40
28.0
 40
29.0
 40
29.0
 40
29.0
 40
30.0
 40
30.0
 40
30.0
 40
31.0
 40
31.0
 40
31.0
 40
31.0
 10
309.5134073119439
 20
1.476518805452286
 10
309.5134073119439
 20
1.476518805452286
 10
309.5134073119439
 20
72.0140952513053
 10
309.5134073119439
 20
72.0140952513053
 10
309.5131919934768
 20
73.37404669410768
 10
308.4106107152693
 20
74.4765203130812
 10
307.0505731450798
 20
74.4765203130812
 10
307.0505731450798
 20
74.4765203130812
 10
307.0506808043131
 20
74.47453938317717
 10
307.0506808043131
 20
74.47453938317717
 10
245.9326198386898
 20
74.3755359516698
 10
255.9783675507509
 20
70.58382079691027
 10
227.9834139783768
 20
70.58382079691027
 10
227.9834139783768
 20
70.58382079691027
 10
228.0434447672073
 20
70.58382079691027
 10
228.0434447672073
 20
70.58382079691027
 10
227.215028494086
 20
70.58382079691027
 10
226.5434501929295
 20
69.91224249575438
 10
226.5434501929295
 20
69.08380469078571
 10
226.5434501929295
 20
69.08380469078571
 10
226.5434501929295
 20
42.14524658526992
 10
226.5434501929295
 20
42.14524658526992
 10
226.5434501929295
 20
42.14524658526992
 10
226.5515031036269
 20
42.14524658526992
 10
226.5515031036269
 20
42.14524658526992
 10
226.5515031036269
 20
39.56418104772074
 10
224.4591458925072
 20
37.47182383660103
 10
221.878080354958
 20
37.47182383660103
 10
221.878080354958
 20
37.47182383660103
 10
221.8433925497903
 20
37.47221140984312
 10
221.8433925497903
 20
37.47221140984312
 10
221.8433925497903
 20
37.47221140984312
 10
221.808424830615
 20
37.4696060563824
 10
221.7457025609373
 20
37.46501977301767
 10
221.7457025609373
 20
37.46501977301767
 10
221.7288431249057
 20
37.47221140984312
 10
221.7288431249057
 20
37.47221140984312
 10
221.7288431249057
 20
37.47221140984312
 10
195.6792488456657
 20
35.54125692220737
 10
154.4365466261587
 20
35.53324707520417
 10
113.1938444066516
 20
35.54125692220737
 10
87.1442285955642
 20
37.47221140984312
 10
87.1442285955642
 20
37.47221140984312
 10
87.1442285955642
 20
37.47221140984312
 10
87.12736915953359
 20
37.46501977301767
 10
87.12736915953359
 20
37.46501977301767
 10
87.06464688985494
 20
37.4696060563824
 10
87.02967917067966
 20
37.47221140984312
 10
87.02967917067966
 20
37.47221140984312
 10
87.02967917067966
 20
37.47221140984312
 10
86.99499136551286
 20
37.47182383660103
 10
86.99499136551286
 20
37.47182383660103
 10
84.41394735981015
 20
37.47182383660103
 10
82.32156861684366
 20
39.56418104772074
 10
82.32156861684366
 20
42.14524658526992
 10
82.32156861684366
 20
42.14524658526992
 10
82.32962152754043
 20
42.14524658526992
 10
82.32962152754043
 20
42.14524658526992
 10
82.32962152754043
 20
42.14524658526992
 10
82.32962152754043
 20
69.08380469078571
 10
82.32962152754043
 20
69.08380469078571
 10
82.32962152754043
 20
69.91224249575438
 10
81.65806475823132
 20
70.58382079691027
 10
80.82962695326265
 20
70.58382079691027
 10
80.82962695326265
 20
70.58382079691027
 10
80.88965774209312
 20
70.58382079691027
 10
80.88965774209312
 20
70.58382079691027
 10
52.89470416971903
 20
70.58382079691027
 10
62.94045188178008
 20
74.3755359516698
 10
1.822390916156815
 20
74.47453938317717
 10
1.822390916156815
 20
74.47453938317717
 10
1.82249857539073
 20
74.4765203130812
 10
1.82249857539073
 20
74.4765203130812
 10
0.4623102822737454
 20
74.4765203130812
 10
-0.6403355914740307
 20
73.37385290748664
 10
-0.6403355914740307
 20
72.01366461436965
 10
-0.6403355914740307
 20
72.01366461436965
 10
-0.6403355914740307
 20
1.476518805452286
 10
-0.6403355914740307
 20
1.476518805452286
 10
-0.6403355914740307
 20
0.9685394761521976
 10
-0.3863459268239864
 20
0.5213660821667687
 10
0.0
 20
0.2500002171629956
 10
0.0
 20
0.2500002171629956
 10
0.3650548556509486
 20
-0.0234973006722758
 10
0.8596589828037485
 20
-0.0234973006722758
 10
1.354263109956548
 20
-0.0234973006722758
 10
307.5464526145112
 20
-0.0234973006722758
 10
308.0134127376662
 20
-0.0234973006722758
 10
308.4803728608217
 20
-0.0234973006722758
 10
308.8730717204699
 20
0.2500217490097784
 10
308.8730717204699
 20
0.2500217490097784
 10
309.2594176472939
 20
0.5213876140135516
 10
309.5134073119439
 20
0.9685394761521976
 10
309.5134073119439
 20
1.476518805452286
 97
        0
 97
        0
 75
     2
 76
     1
 98
        0
  0
SPLINE
  5
57
330
51
100
AcDbEntity
  8
Layer 1
370
     0
100
AcDbSpline
210
0.0
220
0.0
230
1.0
 70
    11
 71
     3
 72
    14
 73
    10
 74
     0
 42
0.0000000001
 43
0.0000000001
 12
1.0
 22
0.0
 32
0.0
 13
1.0
 23
0.0
 33
0.0
 40
0.0
 40
0.0
 40
0.0
 40
0.0
 40
1.0
 40
1.0
 40
1.0
 40
2.0
 40
2.0
 40
2.0
 40
3.0
 40
3.0
 40
3.0
 40
3.0
 10
309.5134073119439
 20
72.087389657754
 30
0.0
 10
309.5134073119439
 20
72.087389657754
 30
0.0
 10
309.5134073119439
 20
72.0140952513053
 30
0.0
 10
309.5134073119439
 20
72.0140952513053
 30
0.0
 10
309.5134073119439
 20
72.0140952513053
 30
0.0
 10
309.5134288437907
 20
72.01381533729713
 30
0.0
 10
309.5134288437907
 20
72.01366461436965
 30
0.0
 10
309.5134288437907
 20
72.01366461436965
 30
0.0
 10
309.5134073119439
 20
72.087389657754
 30
0.0
 10
309.5134073119439
 20
72.087389657754
 30
0.0
  0
HATCH
  5
58
330
51
100
AcDbEntity
  8
Layer 1
 62
   207
420
  7356556
100
AcDbHatch
 10
0.0
 20
0.0
 30
0.0
210
0.0
220
0.0
230
1.0
  2
SOLID
 70
     1
 71
     0
 91
        1
 92
        1
 93
        1
 72
     4
 94
        3
 73
     0
 74
     1
 95
       14
 96
       10
 40
0.0
 40
0.0
 40
0.0
 40
0.0
 40
1.0
 40
1.0
 40
1.0
 40
2.0
 40
2.0
 40
2.0
 40
3.0
 40
3.0
 40
3.0
 40
3.0
 10
309.5134073119439
 20
72.087389657754
 10
309.5134073119439
 20
72.087389657754
 10
309.5134073119439
 20
72.0140952513053
 10
309.5134073119439
 20
72.0140952513053
 10
309.5134073119439
 20
72.0140952513053
 10
309.5134288437907
 20
72.01381533729713
 10
309.5134288437907
 20
72.01366461436965
 10
309.5134288437907
 20
72.01366461436965
 10
309.5134073119439
 20
72.087389657754
 10
309.5134073119439
 20
72.087389657754
 97
        0
 97
        0
 75
     2
 76
     1
 98
        0
  0
ENDBLK
  5
54
330
51
100
AcDbEntity
  8
0
100
AcDbBlockEnd
  0
ENDSEC
  0
SECTION
  2
ENTITIES
  0
INSERT
  5
42
330
1F
100
AcDbEntity
  8
Layer 1
100
AcDbBlockReference
  2
block 2
 10
0.0
 20
0.0
 30
0.0
  0
INSERT
  5
4A
330
1F
100
AcDbEntity
  8
Layer 1
100
AcDbBlockReference
  2
block 3
 10
0.0
 20
0.0
 30
0.0
  0
INSERT
  5
52
330
1F
100
AcDbEntity
  8
Layer 1
100
AcDbBlockReference
  2
block 4
 10
0.0
 20
0.0
 30
0.0
  0
ENDSEC
  0
SECTION
  2
OBJECTS
  0
DICTIONARY
  5
C
330
0
100
AcDbDictionary
281
     1
  3
ACAD_GROUP
350
D
  3
ACAD_LAYOUT
350
1A
  3
ACAD_MATERIAL
350
3B
  3
ACAD_MLEADERSTYLE
350
5A
  3
ACAD_MLINESTYLE
350
17
  3
ACAD_PLOTSETTINGS
350
19
  3
ACAD_PLOTSTYLENAME
350
E
  3
ACAD_TABLESTYLE
350
59
  3
ACAD_VISUALSTYLE
350
2A
  0
SUN
  5
3F
330
29
100
AcDbSun
 90
        1
290
     0
 63
     7
421
 16777215
 40
1.0
291
     1
 91
  2455826
 92
 54000000
292
     0
 70
     2
 71
   256
280
     1
  0
DICTIONARY
  5
D
102
{ACAD_REACTORS
330
C
102
}
330
C
100
AcDbDictionary
281
     1
  0
DICTIONARY
  5
1A
102
{ACAD_REACTORS
330
C
102
}
330
C
100
AcDbDictionary
281
     1
  3
Layout1
350
1E
  3
Layout2
350
26
  3
Model
350
22
  0
DICTIONARY
  5
3B
102
{ACAD_REACTORS
330
C
102
}
330
C
100
AcDbDictionary
281
     1
  3
ByBlock
350
3D
  3
ByLayer
350
3C
  3
Global
350
3E
  0
DICTIONARY
  5
5A
102
{ACAD_REACTORS
330
C
102
}
330
C
100
AcDbDictionary
281
     1
  0
DICTIONARY
  5
17
102
{ACAD_REACTORS
330
C
102
}
330
C
100
AcDbDictionary
281
     1
  3
Standard
350
18
  0
DICTIONARY
  5
19
102
{ACAD_REACTORS
330
C
102
}
330
C
100
AcDbDictionary
281
     1
  0
ACDBDICTIONARYWDFLT
  5
E
102
{ACAD_REACTORS
330
C
102
}
330
C
100
AcDbDictionary
281
     1
  3
Normal
350
F
100
AcDbDictionaryWithDefault
340
F
  0
DICTIONARY
  5
59
102
{ACAD_REACTORS
330
C
102
}
330
C
100
AcDbDictionary
281
     1
  0
DICTIONARY
  5
2A
102
{ACAD_REACTORS
330
C
102
}
330
C
100
AcDbDictionary
281
     1
  3
2dWireframe
350
2F
  3
3D Hidden
350
31
  3
3dWireframe
350
30
  3
Basic
350
32
  3
Brighten
350
36
  3
ColorChange
350
3A
  3
Conceptual
350
34
  3
Dim
350
35
  3
Facepattern
350
39
  3
Flat
350
2B
  3
FlatWithEdges
350
2C
  3
Gouraud
350
2D
  3
GouraudWithEdges
350
2E
  3
Linepattern
350
38
  3
Realistic
350
33
  3
Thicken
350
37
  0
LAYOUT
  5
1E
102
{ACAD_REACTORS
330
1A
102
}
330
1A
100
AcDbPlotSettings
  1

  2
none_device
  4

  6

 40
0.0
 41
0.0
 42
0.0
 43
0.0
 44
0.0
 45
0.0
 46
0.0
 47
0.0
 48
0.0
 49
0.0
140
0.0
141
0.0
142
1.0
143
1.0
 70
   688
 72
     0
 73
     0
 74
     5
  7

 75
    16
 76
     0
 77
     2
 78
   300
147
1.0
148
0.0
149
0.0
100
AcDbLayout
  1
Layout1
 70
     1
 71
     1
 10
0.0
 20
0.0
 11
12.0
 21
9.0
 12
0.0
 22
0.0
 32
0.0
 14
1.000000000000000E+20
 24
1.000000000000000E+20
 34
1.000000000000000E+20
 15
-1.000000000000000E+20
 25
-1.000000000000000E+20
 35
-1.000000000000000E+20
146
0.0
 13
0.0
 23
0.0
 33
0.0
 16
1.0
 26
0.0
 36
0.0
 17
0.0
 27
1.0
 37
0.0
 76
     0
330
1B
  0
LAYOUT
  5
26
102
{ACAD_REACTORS
330
1A
102
}
330
1A
100
AcDbPlotSettings
  1

  2
none_device
  4

  6

 40
0.0
 41
0.0
 42
0.0
 43
0.0
 44
0.0
 45
0.0
 46
0.0
 47
0.0
 48
0.0
 49
0.0
140
0.0
141
0.0
142
1.0
143
1.0
 70
   688
 72
     0
 73
     0
 74
     5
  7

 75
    16
 76
     0
 77
     2
 78
   300
147
1.0
148
0.0
149
0.0
100
AcDbLayout
  1
Layout2
 70
     1
 71
     2
 10
0.0
 20
0.0
 11
0.0
 21
0.0
 12
0.0
 22
0.0
 32
0.0
 14
0.0
 24
0.0
 34
0.0
 15
0.0
 25
0.0
 35
0.0
146
0.0
 13
0.0
 23
0.0
 33
0.0
 16
1.0
 26
0.0
 36
0.0
 17
0.0
 27
1.0
 37
0.0
 76
     0
330
23
  0
LAYOUT
  5
22
102
{ACAD_REACTORS
330
1A
102
}
330
1A
100
AcDbPlotSettings
  1

  2
none_device
  4

  6

 40
0.0
 41
0.0
 42
0.0
 43
0.0
 44
0.0
 45
0.0
 46
0.0
 47
0.0
 48
0.0
 49
0.0
140
0.0
141
0.0
142
1.0
143
1.0
 70
  1712
 72
     0
 73
     0
 74
     0
  7

 75
     0
 76
     0
 77
     2
 78
   300
147
1.0
148
0.0
149
0.0
100
AcDbLayout
  1
Model
 70
     1
 71
     0
 10
0.0
 20
0.0
 11
12.0
 21
9.0
 12
0.0
 22
0.0
 32
0.0
 14
1.000000000000000E+20
 24
1.000000000000000E+20
 34
1.000000000000000E+20
 15
-1.000000000000000E+20
 25
-1.000000000000000E+20
 35
-1.000000000000000E+20
146
0.0
 13
0.0
 23
0.0
 33
0.0
 16
1.0
 26
0.0
 36
0.0
 17
0.0
 27
1.0
 37
0.0
 76
     0
330
1F
331
29
  0
MATERIAL
  5
3D
102
{ACAD_REACTORS
330
3B
102
}
330
3B
100
AcDbMaterial
  1
ByBlock
 72
     1
 94
      127
  0
MATERIAL
  5
3C
102
{ACAD_REACTORS
330
3B
102
}
330
3B
100
AcDbMaterial
  1
ByLayer
 72
     1
 94
      127
  0
MATERIAL
  5
3E
102
{ACAD_REACTORS
330
3B
102
}
330
3B
100
AcDbMaterial
  1
Global
 72
     1
 94
      127
  0
MLINESTYLE
  5
18
102
{ACAD_REACTORS
330
17
102
}
330
17
100
AcDbMlineStyle
  2
Standard
 70
     0
  3

 62
   256
 51
90.0
 52
90.0
 71
     2
 49
0.5
 62
   256
  6
BYLAYER
 49
-0.5
 62
   256
  6
BYLAYER
  0
ACDBPLACEHOLDER
  5
F
102
{ACAD_REACTORS
330
E
102
}
330
E
  0
VISUALSTYLE
  5
2F
102
{ACAD_REACTORS
330
2A
102
}
330
2A
100
AcDbVisualStyle
  2
2dWireframe
 70
     4
177
     2
291
     0
 71
     0
176
     1
 72
     2
176
     1
 73
     0
176
     1
 90
        0
176
     1
 40
-0.6
176
     1
 41
-30.0
176
     1
 62
     5
 63
     7
421
 16777215
176
     1
 74
     1
176
     1
 91
        4
176
     1
 64
     7
176
     1
 65
   257
176
     1
 75
     1
176
     1
175
     1
176
     1
 42
1.0
176
     1
 92
        0
176
     1
 66
   257
176
     1
 43
1.0
176
     1
 76
     1
176
     1
 77
     6
176
     1
 78
     2
176
     1
 67
     7
176
     1
 79
     5
176
     1
170
     0
176
     1
171
     0
176
     1
290
     0
176
     1
 93
        1
176
     1
 44
0.0
176
     1
173
     0
176
     1
  0
VISUALSTYLE
  5
31
102
{ACAD_REACTORS
330
2A
102
}
330
2A
100
AcDbVisualStyle
  2
3D Hidden
 70
     6
177
     2
291
     0
 71
     1
176
     1
 72
     2
176
     1
 73
     2
176
     1
 90
        0
176
     1
 40
-0.6
176
     1
 41
-30.0
176
     1
 62
     5
 63
     7
421
 16777215
176
     1
 74
     2
176
     1
 91
        2
176
     1
 64
     7
176
     1
 65
   257
176
     1
 75
     2
176
     1
175
     1
176
     1
 42
40.0
176
     1
 92
        0
176
     1
 66
   257
176
     1
 43
1.0
176
     1
 76
     1
176
     1
 77
     6
176
     1
 78
     2
176
     1
 67
     7
176
     1
 79
     3
176
     1
170
     0
176
     1
171
     0
176
     1
290
     0
176
     1
 93
        1
176
     1
 44
0.0
176
     1
173
     0
176
     1
  0
VISUALSTYLE
  5
30
102
{ACAD_REACTORS
330
2A
102
}
330
2A
100
AcDbVisualStyle
  2
3dWireframe
 70
     5
177
     2
291
     0
 71
     0
176
     1
 72
     2
176
     1
 73
     0
176
     1
 90
        0
176
     1
 40
-0.6
176
     1
 41
-30.0
176
     1
 62
     5
 63
     7
421
 16777215
176
     1
 74
     1
176
     1
 91
        4
176
     1
 64
     7
176
     1
 65
   257
176
     1
 75
     1
176
     1
175
     1
176
     1
 42
1.0
176
     1
 92
        0
176
     1
 66
   257
176
     1
 43
1.0
176
     1
 76
     1
176
     1
 77
     6
176
     1
 78
     2
176
     1
 67
     7
176
     1
 79
     5
176
     1
170
     0
176
     1
171
     0
176
     1
290
     0
176
     1
 93
        1
176
     1
 44
0.0
176
     1
173
     0
176
     1
  0
VISUALSTYLE
  5
32
102
{ACAD_REACTORS
330
2A
102
}
330
2A
100
AcDbVisualStyle
  2
Basic
 70
     7
177
     2
291
     1
 71
     1
176
     1
 72
     0
176
     1
 73
     1
176
     1
 90
        0
176
     1
 40
-0.6
176
     1
 41
-30.0
176
     1
 62
     5
 63
     7
421
 16777215
176
     1
 74
     0
176
     1
 91
        4
176
     1
 64
     7
176
     1
 65
   257
176
     1
 75
     1
176
     1
175
     1
176
     1
 42
1.0
176
     1
 92
        8
176
     1
 66
     7
176
     1
 43
1.0
176
     1
 76
     1
176
     1
 77
     6
176
     1
 78
     2
176
     1
 67
     7
176
     1
 79
     5
176
     1
170
     0
176
     1
171
     0
176
     1
290
     0
176
     1
 93
        1
176
     1
 44
0.0
176
     1
173
     0
176
     1
  0
VISUALSTYLE
  5
36
102
{ACAD_REACTORS
330
2A
102
}
330
2A
100
AcDbVisualStyle
  2
Brighten
 70
    12
177
     2
291
     1
 71
     2
176
     1
 72
     2
176
     1
 73
     0
176
     1
 90
        0
176
     1
 40
-0.6
176
     1
 41
-30.0
176
     1
 62
     5
 63
     7
421
 16777215
176
     1
 74
     1
176
     1
 91
        4
176
     1
 64
     7
176
     1
 65
   257
176
     1
 75
     1
176
     1
175
     1
176
     1
 42
1.0
176
     1
 92
        8
176
     1
 66
     7
176
     1
 43
1.0
176
     1
 76
     1
176
     1
 77
     6
176
     1
 78
     2
176
     1
 67
     7
176
     1
 79
     5
176
     1
170
     0
176
     1
171
     0
176
     1
290
     0
176
     1
 93
        1
176
     1
 44
50.0
176
     1
173
     0
176
     1
  0
VISUALSTYLE
  5
3A
102
{ACAD_REACTORS
330
2A
102
}
330
2A
100
AcDbVisualStyle
  2
ColorChange
 70
    16
177
     2
291
     1
 71
     2
176
     1
 72
     2
176
     1
 73
     3
176
     1
 90
        0
176
     1
 40
-0.6
176
     1
 41
-30.0
176
     1
 62
     5
 63
     8
421
  8421504
176
     1
 74
     1
176
     1
 91
        4
176
     1
 64
     7
176
     1
 65
   257
176
     1
 75
     1
176
     1
175
     1
176
     1
 42
1.0
176
     1
 92
        8
176
     1
 66
     8
424
  8421504
176
     1
 43
1.0
176
     1
 76
     1
176
     1
 77
     6
176
     1
 78
     2
176
     1
 67
     7
176
     1
 79
     5
176
     1
170
     0
176
     1
171
     0
176
     1
290
     0
176
     1
 93
        1
176
     1
 44
0.0
176
     1
173
     0
176
     1
  0
VISUALSTYLE
  5
34
102
{ACAD_REACTORS
330
2A
102
}
330
2A
100
AcDbVisualStyle
  2
Conceptual
 70
     9
177
     2
291
     0
 71
     3
176
     1
 72
     2
176
     1
 73
     0
176
     1
 90
        0
176
     1
 40
-0.6
176
     1
 41
-30.0
176
     1
 62
     5
 63
     7
421
 16777215
176
     1
 74
     2
176
     1
 91
        2
176
     1
 64
     7
176
     1
 65
   257
176
     1
 75
     1
176
     1
175
     1
176
     1
 42
40.0
176
     1
 92
        8
176
     1
 66
     7
176
     1
 43
1.0
176
     1
 76
     1
176
     1
 77
     6
176
     1
 78
     2
176
     1
 67
     7
176
     1
 79
     3
176
     1
170
     0
176
     1
171
     0
176
     1
290
     0
176
     1
 93
        1
176
     1
 44
0.0
176
     1
173
     0
176
     1
  0
VISUALSTYLE
  5
35
102
{ACAD_REACTORS
330
2A
102
}
330
2A
100
AcDbVisualStyle
  2
Dim
 70
    11
177
     2
291
     1
 71
     2
176
     1
 72
     2
176
     1
 73
     0
176
     1
 90
        0
176
     1
 40
-0.6
176
     1
 41
-30.0
176
     1
 62
     5
 63
     7
421
 16777215
176
     1
 74
     1
176
     1
 91
        4
176
     1
 64
     7
176
     1
 65
   257
176
     1
 75
     1
176
     1
175
     1
176
     1
 42
1.0
176
     1
 92
        8
176
     1
 66
     7
176
     1
 43
1.0
176
     1
 76
     1
176
     1
 77
     6
176
     1
 78
     2
176
     1
 67
     7
176
     1
 79
     5
176
     1
170
     0
176
     1
171
     0
176
     1
290
     0
176
     1
 93
        1
176
     1
 44
-50.0
176
     1
173
     0
176
     1
  0
VISUALSTYLE
  5
39
102
{ACAD_REACTORS
330
2A
102
}
330
2A
100
AcDbVisualStyle
  2
Facepattern
 70
    15
177
     2
291
     1
 71
     2
176
     1
 72
     2
176
     1
 73
     0
176
     1
 90
        0
176
     1
 40
-0.6
176
     1
 41
-30.0
176
     1
 62
     5
 63
     7
421
 16777215
176
     1
 74
     1
176
     1
 91
        4
176
     1
 64
     7
176
     1
 65
   257
176
     1
 75
     1
176
     1
175
     1
176
     1
 42
1.0
176
     1
 92
        8
176
     1
 66
     7
176
     1
 43
1.0
176
     1
 76
     1
176
     1
 77
     6
176
     1
 78
     2
176
     1
 67
     7
176
     1
 79
     5
176
     1
170
     0
176
     1
171
     0
176
     1
290
     0
176
     1
 93
        1
176
     1
 44
0.0
176
     1
173
     0
176
     1
  0
VISUALSTYLE
  5
2B
102
{ACAD_REACTORS
330
2A
102
}
330
2A
100
AcDbVisualStyle
  2
Flat
 70
     0
177
     2
291
     1
 71
     2
176
     1
 72
     1
176
     1
 73
     1
176
     1
 90
        2
176
     1
 40
-0.6
176
     1
 41
30.0
176
     1
 62
     5
 63
     7
421
 16777215
176
     1
 74
     0
176
     1
 91
        4
176
     1
 64
     7
176
     1
 65
   257
176
     1
 75
     1
176
     1
175
     1
176
     1
 42
1.0
176
     1
 92
        8
176
     1
 66
     7
176
     1
 43
1.0
176
     1
 76
     1
176
     1
 77
     6
176
     1
 78
     2
176
     1
 67
     7
176
     1
 79
     5
176
     1
170
     0
176
     1
171
     0
176
     1
290
     0
176
     1
 93
       13
176
     1
 44
0.0
176
     1
173
     0
176
     1
  0
VISUALSTYLE
  5
2C
102
{ACAD_REACTORS
330
2A
102
}
330
2A
100
AcDbVisualStyle
  2
FlatWithEdges
 70
     1
177
     2
291
     1
 71
     2
176
     1
 72
     1
176
     1
 73
     1
176
     1
 90
        2
176
     1
 40
-0.6
176
     1
 41
30.0
176
     1
 62
     5
 63
     7
421
 16777215
176
     1
 74
     1
176
     1
 91
        4
176
     1
 64
     7
176
     1
 65
   257
176
     1
 75
     1
176
     1
175
     1
176
     1
 42
1.0
176
     1
 92
        0
176
     1
 66
   257
176
     1
 43
1.0
176
     1
 76
     1
176
     1
 77
     6
176
     1
 78
     2
176
     1
 67
     7
176
     1
 79
     5
176
     1
170
     0
176
     1
171
     0
176
     1
290
     0
176
     1
 93
       13
176
     1
 44
0.0
176
     1
173
     0
176
     1
  0
VISUALSTYLE
  5
2D
102
{ACAD_REACTORS
330
2A
102
}
330
2A
100
AcDbVisualStyle
  2
Gouraud
 70
     2
177
     2
291
     1
 71
     2
176
     1
 72
     2
176
     1
 73
     1
176
     1
 90
        2
176
     1
 40
-0.6
176
     1
 41
30.0
176
     1
 62
     5
 63
     7
421
 16777215
176
     1
 74
     0
176
     1
 91
        4
176
     1
 64
     7
176
     1
 65
   257
176
     1
 75
     1
176
     1
175
     1
176
     1
 42
1.0
176
     1
 92
        0
176
     1
 66
     7
176
     1
 43
1.0
176
     1
 76
     1
176
     1
 77
     6
176
     1
 78
     2
176
     1
 67
     7
176
     1
 79
     5
176
     1
170
     0
176
     1
171
     0
176
     1
290
     0
176
     1
 93
       13
176
     1
 44
0.0
176
     1
173
     0
176
     1
  0
VISUALSTYLE
  5
2E
102
{ACAD_REACTORS
330
2A
102
}
330
2A
100
AcDbVisualStyle
  2
GouraudWithEdges
 70
     3
177
     2
291
     1
 71
     2
176
     1
 72
     2
176
     1
 73
     1
176
     1
 90
        2
176
     1
 40
-0.6
176
     1
 41
30.0
176
     1
 62
     5
 63
     7
421
 16777215
176
     1
 74
     1
176
     1
 91
        4
176
     1
 64
     7
176
     1
 65
   257
176
     1
 75
     1
176
     1
175
     1
176
     1
 42
1.0
176
     1
 92
        0
176
     1
 66
   257
176
     1
 43
1.0
176
     1
 76
     1
176
     1
 77
     6
176
     1
 78
     2
176
     1
 67
     7
176
     1
 79
     5
176
     1
170
     0
176
     1
171
     0
176
     1
290
     0
176
     1
 93
       13
176
     1
 44
0.0
176
     1
173
     0
176
     1
  0
VISUALSTYLE
  5
38
102
{ACAD_REACTORS
330
2A
102
}
330
2A
100
AcDbVisualStyle
  2
Linepattern
 70
    14
177
     2
291
     1
 71
     2
176
     1
 72
     2
176
     1
 73
     0
176
     1
 90
        0
176
     1
 40
-0.6
176
     1
 41
-30.0
176
     1
 62
     5
 63
     7
421
 16777215
176
     1
 74
     1
176
     1
 91
        4
176
     1
 64
     7
176
     1
 65
   257
176
     1
 75
     7
176
     1
175
     7
176
     1
 42
1.0
176
     1
 92
        8
176
     1
 66
     7
176
     1
 43
1.0
176
     1
 76
     1
176
     1
 77
     6
176
     1
 78
     2
176
     1
 67
     7
176
     1
 79
     5
176
     1
170
     0
176
     1
171
     0
176
     1
290
     0
176
     1
 93
        1
176
     1
 44
0.0
176
     1
173
     0
176
     1
  0
VISUALSTYLE
  5
33
102
{ACAD_REACTORS
330
2A
102
}
330
2A
100
AcDbVisualStyle
  2
Realistic
 70
     8
177
     2
291
     0
 71
     2
176
     1
 72
     2
176
     1
 73
     0
176
     1
 90
        0
176
     1
 40
-0.6
176
     1
 41
-30.0
176
     1
 62
     5
 63
     7
421
 16777215
176
     1
 74
     1
176
     1
 91
        0
176
     1
 64
     7
176
     1
 65
   257
176
     1
 75
     1
176
     1
175
     1
176
     1
 42
1.0
176
     1
 92
        8
176
     1
 66
     8
424
  7895160
176
     1
 43
1.0
176
     1
 76
     1
176
     1
 77
     6
176
     1
 78
     2
176
     1
 67
     7
176
     1
 79
     5
176
     1
170
     0
176
     1
171
     0
176
     1
290
     0
176
     1
 93
       13
176
     1
 44
0.0
176
     1
173
     0
176
     1
  0
VISUALSTYLE
  5
37
102
{ACAD_REACTORS
330
2A
102
}
330
2A
100
AcDbVisualStyle
  2
Thicken
 70
    13
177
     2
291
     1
 71
     2
176
     1
 72
     2
176
     1
 73
     0
176
     1
 90
        0
176
     1
 40
-0.6
176
     1
 41
-30.0
176
     1
 62
     5
 63
     7
421
 16777215
176
     1
 74
     1
176
     1
 91
        4
176
     1
 64
     7
176
     1
 65
   257
176
     1
 75
     1
176
     1
175
     1
176
     1
 42
1.0
176
     1
 92
       12
176
     1
 66
     7
176
     1
 43
1.0
176
     1
 76
     1
176
     1
 77
     6
176
     1
 78
     2
176
     1
 67
     7
176
     1
 79
     5
176
     1
170
     0
176
     1
171
     0
176
     1
290
     0
176
     1
 93
        1
176
     1
 44
0.0
176
     1
173
     0
176
     1
  0
ENDSEC
  0
EOF
